<svg xmlns="http://www.w3.org/2000/svg" viewBox="0 0 32 32">
  <!-- Background Circle -->
  <circle cx="16" cy="16" r="15" fill="#3b5dc9"/>
  
  <!-- Speech Bubbles Representing Translation -->
  <!-- Chinese/Input Speech Bubble -->
  <path d="M8,10 L18,10 C19.1,10 20,10.9 20,12 L20,15 C20,16.1 19.1,17 18,17 L15,17 L12,20 L12,17 L8,17 C6.9,17 6,16.1 6,15 L6,12 C6,10.9 6.9,10 8,10 Z" fill="white"/>
  
  <!-- Chinese Character Suggestion -->
  <path d="M10,13.5 L16,13.5" stroke="#3b5dc9" stroke-width="1" stroke-linecap="round"/>
  <path d="M12,12 L14,12" stroke="#3b5dc9" stroke-width="1" stroke-linecap="round"/>
  <path d="M11,15 L15,15" stroke="#3b5dc9" stroke-width="1" stroke-linecap="round"/>
  
  <!-- English/Output Speech Bubble -->
  <path d="M14,19 L24,19 C25.1,19 26,19.9 26,21 L26,24 C26,25.1 25.1,26 24,26 L21,26 L18,29 L18,26 L14,26 C12.9,26 12,25.1 12,24 L12,21 C12,19.9 12.9,19 14,19 Z" fill="white"/>
  
  <!-- Translation Arrow -->
  <path d="M15,17.5 L17,19.5 L17,15.5 Z" fill="#3b5dc9"/>
  
  <!-- English Text Suggestion -->
  <path d="M16,22.5 L22,22.5" stroke="#3b5dc9" stroke-width="1" stroke-linecap="round"/>
  <path d="M18,24 L20,24" stroke="#3b5dc9" stroke-width="1" stroke-linecap="round"/>
</svg>